<mxfile host="Electron" modified="2025-06-30T02:30:57.869Z" agent="Mozilla/5.0 (Windows NT 10.0; Win64; x64) AppleWebKit/537.36 (KHTML, like Gecko) draw.io/22.1.21 Chrome/120.0.6099.109 Electron/28.1.0 Safari/537.36" etag="W4muvQT4mN9AKK-u6gPB" version="22.1.21" type="device">
  <diagram name="第 1 页" id="zwOmsDR6nMqQjgbCNpCJ">
    <mxGraphModel dx="2074" dy="1196" grid="1" gridSize="10" guides="1" tooltips="1" connect="1" arrows="1" fold="1" page="1" pageScale="1" pageWidth="827" pageHeight="1169" math="0" shadow="0">
      <root>
        <mxCell id="0" />
        <mxCell id="1" parent="0" />
        <mxCell id="_NUa1HqEA54rbeqK5E3i-7" style="edgeStyle=orthogonalEdgeStyle;rounded=0;orthogonalLoop=1;jettySize=auto;html=1;exitX=1;exitY=0.5;exitDx=0;exitDy=0;endArrow=diamondThin;endFill=0;" edge="1" parent="1" source="_NUa1HqEA54rbeqK5E3i-1" target="_NUa1HqEA54rbeqK5E3i-6">
          <mxGeometry relative="1" as="geometry" />
        </mxCell>
        <mxCell id="_NUa1HqEA54rbeqK5E3i-1" value="&lt;p style=&quot;margin:0px;margin-top:4px;text-align:center;&quot;&gt;&lt;i&gt;&amp;lt;&amp;lt;Interface&amp;gt;&amp;gt;&lt;/i&gt;&lt;br&gt;&lt;b&gt;SpringApplicationRunListener&lt;/b&gt;&lt;/p&gt;&lt;hr size=&quot;1&quot;&gt;&lt;p style=&quot;margin:0px;margin-left:4px;&quot;&gt;+ starting(ConfigurableBootstrapContext): void&lt;br&gt;+ environmentPrepared(ConfigurableBootstrapContext, ConfigurableEnvironment): void&lt;br&gt;&lt;/p&gt;&lt;p style=&quot;margin:0px;margin-left:4px;&quot;&gt;+ contextPrepared(ConfigurableBootstrapContext): void&lt;br&gt;&lt;/p&gt;&lt;p style=&quot;margin:0px;margin-left:4px;&quot;&gt;+ contextLoaded(ConfigurableBootstrapContext): void&lt;br&gt;&lt;/p&gt;&lt;p style=&quot;margin:0px;margin-left:4px;&quot;&gt;+ started(ConfigurableBootstrapContext, Duration): void&lt;br&gt;&lt;/p&gt;&lt;p style=&quot;margin:0px;margin-left:4px;&quot;&gt;+ ready(ConfigurableBootstrapContext, Duration): void&lt;br&gt;&lt;/p&gt;&amp;nbsp;+ running(ConfigurableBootstrapContext): void&lt;p style=&quot;margin:0px;margin-left:4px;&quot;&gt;+ failed(ConfigurableBootstrapContext, Throwable): void&lt;br&gt;&lt;/p&gt;" style="verticalAlign=top;align=left;overflow=fill;fontSize=12;fontFamily=Helvetica;html=1;whiteSpace=wrap;" vertex="1" parent="1">
          <mxGeometry x="270" y="360" width="490" height="170" as="geometry" />
        </mxCell>
        <mxCell id="_NUa1HqEA54rbeqK5E3i-2" value="在 Spring 容器启动过程中，各个阶段发布事件" style="text;html=1;strokeColor=none;fillColor=none;align=center;verticalAlign=middle;whiteSpace=wrap;rounded=0;" vertex="1" parent="1">
          <mxGeometry x="365" y="730" width="300" height="30" as="geometry" />
        </mxCell>
        <mxCell id="_NUa1HqEA54rbeqK5E3i-4" style="edgeStyle=orthogonalEdgeStyle;rounded=0;orthogonalLoop=1;jettySize=auto;html=1;exitX=0.5;exitY=0;exitDx=0;exitDy=0;dashed=1;endArrow=block;endFill=0;" edge="1" parent="1" source="_NUa1HqEA54rbeqK5E3i-3" target="_NUa1HqEA54rbeqK5E3i-1">
          <mxGeometry relative="1" as="geometry" />
        </mxCell>
        <mxCell id="_NUa1HqEA54rbeqK5E3i-3" value="&lt;p style=&quot;margin:0px;margin-top:4px;text-align:center;&quot;&gt;&lt;b&gt;EventPulishingRunListener&lt;/b&gt;&lt;/p&gt;&lt;hr size=&quot;1&quot;&gt;&lt;p style=&quot;margin:0px;margin-left:4px;&quot;&gt;- application: SpringApplication&lt;/p&gt;&lt;p style=&quot;margin:0px;margin-left:4px;&quot;&gt;- args: String[]&lt;/p&gt;&lt;p style=&quot;margin:0px;margin-left:4px;&quot;&gt;- initalMulticaster: SimpleApplicationEventMulticaster&lt;/p&gt;&lt;p style=&quot;margin:0px;margin-left:4px;&quot;&gt;&lt;br&gt;&lt;/p&gt;" style="verticalAlign=top;align=left;overflow=fill;fontSize=12;fontFamily=Helvetica;html=1;whiteSpace=wrap;" vertex="1" parent="1">
          <mxGeometry x="360" y="650" width="310" height="80" as="geometry" />
        </mxCell>
        <mxCell id="_NUa1HqEA54rbeqK5E3i-5" value="在 Spring 容器启动过程中，各个阶段自定义动作" style="text;html=1;strokeColor=none;fillColor=none;align=center;verticalAlign=middle;whiteSpace=wrap;rounded=0;" vertex="1" parent="1">
          <mxGeometry x="375" y="330" width="280" height="30" as="geometry" />
        </mxCell>
        <mxCell id="_NUa1HqEA54rbeqK5E3i-6" value="&lt;p style=&quot;margin:0px;margin-top:4px;text-align:center;&quot;&gt;&lt;b&gt;SpringApplicationRunListeners&lt;/b&gt;&lt;/p&gt;&lt;hr size=&quot;1&quot;&gt;&lt;p style=&quot;margin:0px;margin-left:4px;&quot;&gt;- log: Log&lt;/p&gt;&lt;p style=&quot;margin:0px;margin-left:4px;&quot;&gt;- listeners: List&amp;lt;SpringApplicationRunListener&amp;gt;&lt;/p&gt;&lt;p style=&quot;margin:0px;margin-left:4px;&quot;&gt;- applicationStartup: ApplicationStartup&lt;/p&gt;&lt;hr size=&quot;1&quot;&gt;&lt;p style=&quot;margin:0px;margin-left:4px;&quot;&gt;+ ...&lt;/p&gt;" style="verticalAlign=top;align=left;overflow=fill;fontSize=12;fontFamily=Helvetica;html=1;whiteSpace=wrap;" vertex="1" parent="1">
          <mxGeometry x="961" y="390" width="310" height="110" as="geometry" />
        </mxCell>
        <mxCell id="_NUa1HqEA54rbeqK5E3i-8" value="将所有 SPI 得到的 Listener 聚集在这里，Spring 启动流程调用这里的方法，进而依次调用各个监听器方法" style="text;html=1;strokeColor=none;fillColor=none;align=center;verticalAlign=middle;whiteSpace=wrap;rounded=0;" vertex="1" parent="1">
          <mxGeometry x="961" y="360" width="310" height="30" as="geometry" />
        </mxCell>
      </root>
    </mxGraphModel>
  </diagram>
</mxfile>
